<svg width="86" height="32" viewBox="0 0 86 32" fill="none" xmlns="http://www.w3.org/2000/svg">
<path d="M0 28V0H28V4H32V8H28V4H4V28H8V32H4V28H0Z" fill="#131314"/>
<path d="M32 12V32H12V28H28V12H32Z" fill="#131314"/>
<path d="M40.4311 19.4335H38V17.3734H45.1875V19.4335H42.7564V31.794H40.4311V19.4335Z" fill="#131314"/>
<path d="M49.5919 32C48.4504 32 47.5766 31.6841 46.9706 31.0524C46.3646 30.4206 46.0616 29.5279 46.0616 28.3742V20.7931C46.0616 19.6395 46.3646 18.7468 46.9706 18.115C47.5766 17.4833 48.4504 17.1674 49.5919 17.1674C50.7335 17.1674 51.6073 17.4833 52.2133 18.115C52.8193 18.7468 53.1223 19.6395 53.1223 20.7931V28.3742C53.1223 29.5279 52.8193 30.4206 52.2133 31.0524C51.6073 31.6841 50.7335 32 49.5919 32ZM49.5919 29.9399C50.3953 29.9399 50.7969 29.4661 50.7969 28.5185V20.6489C50.7969 19.7013 50.3953 19.2275 49.5919 19.2275C48.7886 19.2275 48.387 19.7013 48.387 20.6489V28.5185C48.387 29.4661 48.7886 29.9399 49.5919 29.9399Z" fill="#131314"/>
<path d="M54.6949 17.3734H58.1406C59.3385 17.3734 60.2123 17.6481 60.7619 18.1974C61.3116 18.733 61.5864 19.5639 61.5864 20.6901V21.576C61.5864 23.073 61.079 24.0206 60.0643 24.4189V24.4601C60.628 24.6249 61.0226 24.9614 61.2481 25.4695C61.4877 25.9777 61.6075 26.6575 61.6075 27.509V30.0429C61.6075 30.4549 61.6216 30.7914 61.6498 31.0524C61.678 31.2996 61.7484 31.5468 61.8612 31.794H59.4935C59.409 31.5605 59.3526 31.3408 59.3244 31.1348C59.2962 30.9288 59.2822 30.5579 59.2822 30.0223V27.3854C59.2822 26.7262 59.1694 26.2661 58.9439 26.0051C58.7325 25.7442 58.3591 25.6137 57.8235 25.6137H57.0202V31.794H54.6949V17.3734ZM57.8658 23.5536C58.3309 23.5536 58.6762 23.4369 58.9016 23.2034C59.1412 22.97 59.261 22.5785 59.261 22.0292V20.9167C59.261 20.3949 59.1624 20.0172 58.9651 19.7837C58.7819 19.5502 58.4859 19.4335 58.0772 19.4335H57.0202V23.5536H57.8658Z" fill="#131314"/>
<path d="M63.2209 17.3734H66.6667C67.8646 17.3734 68.7383 17.6481 69.288 18.1974C69.8376 18.733 70.1124 19.5639 70.1124 20.6901V21.576C70.1124 23.073 69.6051 24.0206 68.5904 24.4189V24.4601C69.1541 24.6249 69.5487 24.9614 69.7742 25.4695C70.0138 25.9777 70.1336 26.6575 70.1336 27.509V30.0429C70.1336 30.4549 70.1476 30.7914 70.1758 31.0524C70.204 31.2996 70.2745 31.5468 70.3872 31.794H68.0196C67.935 31.5605 67.8787 31.3408 67.8505 31.1348C67.8223 30.9288 67.8082 30.5579 67.8082 30.0223V27.3854C67.8082 26.7262 67.6954 26.2661 67.47 26.0051C67.2586 25.7442 66.8851 25.6137 66.3496 25.6137H65.5463V31.794H63.2209V17.3734ZM66.3918 23.5536C66.8569 23.5536 67.2022 23.4369 67.4277 23.2034C67.6673 22.97 67.7871 22.5785 67.7871 22.0292V20.9167C67.7871 20.3949 67.6884 20.0172 67.4911 19.7837C67.3079 19.5502 67.0119 19.4335 66.6032 19.4335H65.5463V23.5536H66.3918Z" fill="#131314"/>
<path d="M71.7469 17.3734H78.0888V19.4335H74.0723V23.2446H77.2644V25.3047H74.0723V29.7339H78.0888V31.794H71.7469V17.3734Z" fill="#131314"/>
<path d="M82.4908 32C81.3634 32 80.5107 31.691 79.9329 31.073C79.3551 30.4412 79.0662 29.5416 79.0662 28.3742V27.5502H81.2647V28.5391C81.2647 29.473 81.6664 29.9399 82.4697 29.9399C82.8643 29.9399 83.1602 29.83 83.3575 29.6103C83.5689 29.3768 83.6746 29.006 83.6746 28.4979C83.6746 27.8936 83.5337 27.3648 83.2518 26.9116C82.97 26.4446 82.4485 25.8884 81.6875 25.2429C80.7292 24.4189 80.0598 23.6773 79.6792 23.018C79.2987 22.3451 79.1085 21.5897 79.1085 20.7519C79.1085 19.612 79.4044 18.733 79.9963 18.115C80.5883 17.4833 81.4479 17.1674 82.5754 17.1674C83.6887 17.1674 84.5273 17.4833 85.091 18.115C85.6688 18.733 85.9577 19.6258 85.9577 20.7931V21.3906H83.7592V20.6489C83.7592 20.1545 83.6605 19.7974 83.4632 19.5777C83.2659 19.3442 82.977 19.2275 82.5965 19.2275C81.8214 19.2275 81.4338 19.6876 81.4338 20.6077C81.4338 21.1296 81.5748 21.6172 81.8566 22.0704C82.1526 22.5236 82.6811 23.073 83.4421 23.7185C84.4145 24.5425 85.084 25.291 85.4504 25.9639C85.8168 26.6369 86 27.4266 86 28.333C86 29.5142 85.697 30.4206 85.091 31.0524C84.4991 31.6841 83.6324 32 82.4908 32Z" fill="#131314"/>
<path d="M39.0781 14.709C38.6553 14.709 38.296 14.6815 38 14.6266V12.5665C38.2255 12.6215 38.4792 12.6489 38.761 12.6489C39.2261 12.6489 39.5714 12.5391 39.7969 12.3193C40.0224 12.0858 40.1351 11.7356 40.1351 11.2687V0.206008H42.4605V11.2069C42.4605 12.388 42.1786 13.267 41.6149 13.8438C41.0652 14.4206 40.2197 14.709 39.0781 14.709Z" fill="#131314"/>
<path d="M47.4843 14.8326C46.3427 14.8326 45.4689 14.5167 44.8629 13.885C44.2569 13.2532 43.9539 12.3605 43.9539 11.2069V3.62575C43.9539 2.4721 44.2569 1.5794 44.8629 0.94764C45.4689 0.31588 46.3427 0 47.4843 0C48.6258 0 49.4996 0.31588 50.1056 0.94764C50.7116 1.5794 51.0146 2.4721 51.0146 3.62575V11.2069C51.0146 12.3605 50.7116 13.2532 50.1056 13.885C49.4996 14.5167 48.6258 14.8326 47.4843 14.8326ZM47.4843 12.7725C48.2876 12.7725 48.6892 12.2987 48.6892 11.3511V3.48155C48.6892 2.53391 48.2876 2.06009 47.4843 2.06009C46.681 2.06009 46.2793 2.53391 46.2793 3.48155V11.3511C46.2793 12.2987 46.681 12.7725 47.4843 12.7725Z" fill="#131314"/>
<path d="M52.5872 0.206008H58.9291V2.26609H54.9125V6.07725H58.1046V8.13734H54.9125V12.5665H58.9291V14.6266H52.5872V0.206008Z" fill="#131314"/>
<path d="M60.2668 0.206008H62.5922V12.5665H66.4184V14.6266H60.2668V0.206008Z" fill="#131314"/>
</svg>
